# xmcd
#
# Track frame offsets:
#	150
#	16880
#	31440
#	47745
#	61000
#	77460
#	96015
#	118090
#	133245
#	147277
#	163867
#
# Disc length: 2398 seconds
#
# Revision: 0
# Processed by: cddbd v1.5.2PL0 Copyright (c) Steve Scherf et al.
# Submitted via: audiograbber 1.83.01
#
DISCID=8d095c0b
DTITLE=Redmon and Vale - Redmon and Vale
DYEAR=1999
DGENRE=Country
TTITLE0=Movin On
TTITLE1=If I Had A Nickle [One Thin Dime]
TTITLE2=Pretty Pink House
TTITLE3=Both Sides Of Goodbye
TTITLE4=In The Name Of Love
TTITLE5=Rumors
TTITLE6=Last Exit To Eden
TTITLE7=Get Lost
TTITLE8=Kisses Don't Lie
TTITLE9=I Wanna Know
TTITLE10=Squeezin The Love Outta You
EXTD=YEAR: 1999
EXTT0=
EXTT1=
EXTT2=
EXTT3=
EXTT4=
EXTT5=
EXTT6=
EXTT7=
EXTT8=
EXTT9=
EXTT10=
PLAYORDER=
